<?xml version="1.0" encoding="UTF-8"?>
<!DOCTYPE svg PUBLIC "-//W3C//DTD SVG 1.1//EN" "http://www.w3.org/Graphics/SVG/1.1/DTD/svg11.dtd">
<!-- Creator: CorelDRAW -->
<svg xmlns="http://www.w3.org/2000/svg" xml:space="preserve" width="79.375mm" height="79.375mm" version="1.1" style="shape-rendering:geometricPrecision; text-rendering:geometricPrecision; image-rendering:optimizeQuality; fill-rule:evenodd; clip-rule:evenodd"
viewBox="0 0 7937500 7937500"
 xmlns:xlink="http://www.w3.org/1999/xlink"
 xmlns:xodm="http://www.corel.com/coreldraw/odm/2003">
 <defs>
  <style type="text/css">
   <![CDATA[
    .fil1 {fill:none}
    .fil0 {fill:none;fill-rule:nonzero}
   ]]>
  </style>
 </defs>
 <g id="Слой_x0020_1">
  <metadata id="CorelCorpID_0Corel-Layer"/>
  <path class="fil0" d="M1235280 1658690c81220,-39860 163210,-60080 243720,-60080 29450,0 59070,2730 88030,8130 79030,14710 153570,49290 221500,102750 8270,6510 17230,12240 26160,18010 11510,-9250 24850,-18420 40220,-27510 7030,-3800 14070,-7610 21980,-11720 85550,-44310 218150,-85270 388370,-121300l15800 -27370 331980 -575170 42780 -74130 4690 -8200 12590 -21690 6450 -11130c1460,-2340 2930,-4980 4690,-7330 4390,-7610 9380,-14940 14940,-21970 7910,-10840 16700,-21390 26370,-30770 7030,-7610 14940,-14940 23150,-21680 21680,-18160 46000,-33400 72080,-44530 18460,-8210 37790,-14650 57430,-18760 21090,-4980 43070,-7320 65040,-7320l2438980 0c108990,0 209490,58310 263990,152360l18760 32530 21090 36330 180490 313220 23150 39850 170760 295980c6120,1310 12680,2560 18690,3880 14360,2930 28130,6160 41900,9380 254030,58600 411960,129210 435700,205980 2050,6740 3220,13480 3220,20220l0 26660c0,22860 0,49220 0,49220l-880 4690 -4390 27260 -300 2340 -298570 1805490 -6720 40950c62690,69210 130710,135810 197610,200490l38310 37110c39950,38790 81210,61700 126150,70050 13670,2560 28270,3850 43370,3850 8420,0 17000,-400 25670,-1190 7380,-670 14710,-1000 21950,-1000 13890,0 27610,1250 40760,3690 49430,9200 91630,34420 125440,74980 87890,105520 129690,224050 124260,352310 -3780,89360 -68290,152810 -156820,154290l-4670 40c-14170,0 -27520,-1200 -40860,-3660 -11980,-2250 -23660,-5530 -34880,-9820 -9200,1880 -18520,2820 -27910,2820 -8500,0 -17070,-790 -25570,-2360 -48240,-9030 -76320,-39840 -88110,-53640 -19320,-18020 -34240,-36820 -46340,-52060 -7110,-8970 -17870,-22500 -21270,-24990l-36300 -19030c-72890,-38170 -148280,-77620 -221720,-128640 -40220,-27940 -82380,-54790 -125160,-81000 -120,-70 -240,-140 -360,-210l-4690 28310 -8500 51860 -96690 585130c0,0 -21620,219150 -30380,268790l-192520 1091840c-10910,61910 -43290,117990 -91450,158400l-849300 712650c-48150,40400 -109000,62550 -171860,62550l-1108690 0c-62860,0 -123710,-22150 -171870,-62550l-849300 -712650c-48160,-40410 -80530,-96490 -91450,-158400l-192520 -1091840c-8510,-48280 -6510,-153120 -11380,-152180l-4390 -26070 -4980 -30480 -35750 -216230 -375340 -2272250 -4980 -30770 -280 -1680c-99720,109470 -242180,176630 -391600,176630 -31090,0 -62350,-2890 -93330,-8660l-8280 -1640c-264710,-54400 -434670,-262990 -432980,-531430 1280,-207680 106120,-373140 295120,-465930zm2027690 -569240l0 6000c0,39510 32460,71960 71970,71960l1655940 0c39860,0 71960,-32450 71960,-71960l0 -6000c0,-39510 -32100,-71970 -71960,-71970l-1655940 0c-39510,0 -71970,32460 -71970,71970z"/>
  <path class="fil1" d="M5993250 5040360c31200,13330 39910,48800 39650,88140 -80,30800 -5730,63960 -10480,90880l-192520 1091840c-10920,61910 -43290,117990 -91450,158400l-849300 712650c-48160,40400 -109010,62550 -171870,62550l-180 0 -1108500 0 -180 0c-62860,0 -123710,-22150 -171870,-62550l-849300 -712650c-48160,-40410 -80530,-96490 -91450,-158400l-192520 -1091840c-4750,-26920 -10400,-60080 -10480,-90880 -260,-39340 8450,-74810 39650,-88140 840,-380 1710,-750 2590,-1100 50,-20 100,-40 160,-60 401830,-160310 1117520,-228200 1827650,-223540 710130,-4660 1425820,63230 1827650,223540 60,20 110,40 160,60 880,350 1750,720 2590,1100z"/>
 </g>
</svg>
