<?xml version="1.0" encoding="UTF-8"?>
<!DOCTYPE svg PUBLIC "-//W3C//DTD SVG 1.1//EN" "http://www.w3.org/Graphics/SVG/1.1/DTD/svg11.dtd">
<!-- Creator: CorelDRAW -->
<svg xmlns="http://www.w3.org/2000/svg" xml:space="preserve" width="79.375mm" height="79.375mm" version="1.1" style="shape-rendering:geometricPrecision; text-rendering:geometricPrecision; image-rendering:optimizeQuality; fill-rule:evenodd; clip-rule:evenodd"
viewBox="0 0 7937500 7937500"
 xmlns:xlink="http://www.w3.org/1999/xlink"
 xmlns:xodm="http://www.corel.com/coreldraw/odm/2003">
 <defs>
  <style type="text/css">
   <![CDATA[
    .fil0 {fill:none}
   ]]>
  </style>
 </defs>
 <g id="Слой_x0020_1">
  <metadata id="CorelCorpID_0Corel-Layer"/>
  <path class="fil0" d="M871570 2607230c-118890,59850 -75090,243770 69500,243770l182390 14110 -30340 28220c-15880,2470 -35980,9520 -54680,27520 -95560,91210 -9090,265010 189790,168980l219430 -106540c71150,-35680 109930,-40700 178150,-36340l105840 640650 -458260 -144290c-95460,-31630 -155640,111470 -58560,154870 17990,8110 36690,16580 54680,25050 39860,17990 149930,275520 181330,291040l364060 176740 1770 11290 149220 902400c0,0 4550,60310 10030,118080 110,30710 5740,63720 10470,90540l192520 1091840c10920,61910 43290,117990 91450,158400l849300 712650c48160,40400 109010,62550 171970,62550l1108780 0c62860,0 123710,-22150 171870,-62550l849300 -712650c48160,-40410 80530,-96490 91450,-158400l172730 -980160c426640,10540 936650,-74790 1208790,-379920 55480,-62210 -4440,-156180 -84310,-135460 -68090,19050 -164750,37740 -148520,31750 375000,-135820 533040,-425810 444500,-815620 -44100,-195090 -128770,-384880 -274110,-615250 -205280,-325200 -447940,-615490 -696600,-882150l40 -230c-50,-50 -90,-90 -150,-140l107570 -700750 0 -26810c0,-64410 -94700,-120100 -220250,-164050 10,-60 10,-110 20,-160 -61510,-21960 -134720,-42470 -218480,-61800l-414920 -719060c-54490,-94050 -154990,-152360 -263990,-152360l-2438970 0c-22570,1450 -43160,3880 -64740,9290 -20240,4590 -38660,9540 -57740,16780 -101040,44020 -132890,111750 -181380,195750 -488990,-243340 -1085530,102080 -1084080,674880 480,188370 70690,360210 185890,491250l73880 446430c-159500,8950 -396560,27860 -543410,-700 -37700,-7330 -79020,16190 -92070,55740 -23280,710 -41280,9880 -51160,14820zm2050700 -1598440l0 6000c0,39510 32460,71960 71970,71960l1655940 0c39860,0 71960,-32450 71960,-71960l0 -6000c0,-39510 -32100,-71970 -71960,-71970l-1655940 0c-39510,0 -71970,32460 -71970,71970z"/>
  <path class="fil0" d="M5676380 5034300c31200,13330 39910,48800 39650,88140 -80,30800 -5730,63960 -10480,90880l-192520 1091840c-10920,61910 -43290,117990 -91450,158400l-849300 712650c-48160,40400 -109010,62550 -171870,62550l-180 0 -1108500 0 -180 0c-62860,0 -123710,-22150 -171870,-62550l-849300 -712650c-48160,-40410 -80530,-96490 -91450,-158400l-192520 -1091840c-4750,-26920 -10400,-60080 -10480,-90880 -260,-39340 8450,-74810 39650,-88140 840,-380 1710,-750 2590,-1100 50,-20 100,-40 160,-60 401830,-160310 1117520,-228200 1827650,-223540 710130,-4660 1425820,63230 1827650,223540 60,20 110,40 160,60 880,350 1750,720 2590,1100z"/>
 </g>
</svg>
