<?xml version="1.0" encoding="UTF-8"?>
<!DOCTYPE svg PUBLIC "-//W3C//DTD SVG 1.1//EN" "http://www.w3.org/Graphics/SVG/1.1/DTD/svg11.dtd">
<!-- Creator: CorelDRAW -->
<svg xmlns="http://www.w3.org/2000/svg" xml:space="preserve" width="79.375mm" height="79.375mm" version="1.1" style="shape-rendering:geometricPrecision; text-rendering:geometricPrecision; image-rendering:optimizeQuality; fill-rule:evenodd; clip-rule:evenodd"
viewBox="0 0 7937500 7937500"
 xmlns:xlink="http://www.w3.org/1999/xlink"
 xmlns:xodm="http://www.corel.com/coreldraw/odm/2003">
 <defs>
  <style type="text/css">
   <![CDATA[
    .fil1 {fill:none}
    .fil0 {fill:none;fill-rule:nonzero}
   ]]>
  </style>
 </defs>
 <g id="Слой_x0020_1">
  <metadata id="CorelCorpID_0Corel-Layer"/>
  <path class="fil0" d="M681290 2529830c-171410,-544150 82130,-971540 635510,-1102900 146640,-34810 301690,-46250 453020,-47210 170090,-1070 340190,-1700 510290,-2120l222670 -685310c36600,-112630 141550,-188880 259970,-188880l2407760 0c118420,0 223380,76250 259970,188880l222730 685480c242140,1050 484240,3850 726240,10400 748300,20270 1108410,597900 833540,1290680 -31600,79630 -67490,158510 -110300,232600 -463900,802850 -926170,1606670 -1390900,2409060l-80 400c-51870,277440 -105450,551570 -161200,819480 -23370,112290 -64450,208960 -119500,289160 -90970,133500 -220660,221340 -373070,258850 -51210,13150 -103320,19990 -155710,21410 -27420,46670 -54530,93520 -81980,140180 -454520,772480 -1189010,782620 -1682640,40100 -47530,-71480 -92300,-144970 -135070,-219410 -377160,-656460 -754430,-1312870 -1131230,-1969540 -219500,-166510 -438680,-333360 -657380,-500720 -301480,-230710 -423610,-486720 -376880,-715100 16560,-110460 71750,-213550 164580,-303420l-7020 -12270c-117600,-206260 -242730,-415730 -313320,-639800zm2492760 -1449170l1585160 0c31710,0 57420,-25700 57420,-57420l0 -62410c0,-31710 -25710,-57420 -57420,-57420l-1585160 0c-31710,0 -57420,25710 -57420,57420l0 62410c0,31720 25710,57420 57420,57420z"/>
  <path class="fil1" d="M3925450 6249540c-905320,-681490 -1812430,-1361090 -2711520,-2049120 -301480,-230710 -423610,-486720 -376880,-715100 34570,-230520 237210,-428990 599600,-542100 1083730,-338220 2172140,-665720 3259490,-995660 100640,-30620 201280,-61270 301890,-91950 186360,-56820 402190,-83770 600410,-47910 108790,19230 212360,57250 302970,119490 130420,87690 222080,214950 261580,371830 24040,94080 29350,198790 12750,312040 -84240,574850 -187280,1172580 -295490,1768970 -103110,596450 -211540,1192340 -329740,1760360 -23370,112290 -64450,208960 -119500,289160 -90970,133500 -220660,221340 -373070,258850 -106280,27280 -216410,27440 -324980,8240 -198670,-34330 -392350,-133850 -548010,-251340l-259500 -195760z"/>
 </g>
</svg>
