<?xml version="1.0" encoding="UTF-8"?>
<!DOCTYPE svg PUBLIC "-//W3C//DTD SVG 1.1//EN" "http://www.w3.org/Graphics/SVG/1.1/DTD/svg11.dtd">
<!-- Creator: CorelDRAW -->
<svg xmlns="http://www.w3.org/2000/svg" xml:space="preserve" width="79.375mm" height="79.375mm" version="1.1" style="shape-rendering:geometricPrecision; text-rendering:geometricPrecision; image-rendering:optimizeQuality; fill-rule:evenodd; clip-rule:evenodd"
viewBox="0 0 7937500 7937500"
 xmlns:xlink="http://www.w3.org/1999/xlink"
 xmlns:xodm="http://www.corel.com/coreldraw/odm/2003">
 <defs>
  <style type="text/css">
   <![CDATA[
    .fil0 {fill:none;fill-rule:nonzero}
   ]]>
  </style>
 </defs>
 <g id="Слой_x0020_1">
  <metadata id="CorelCorpID_0Corel-Layer"/>
  <path class="fil0" d="M6911200 2862270c-83960,-145340 -1310920,-2264120 -1358190,-2351610 -29630,-54680 -65620,-72680 -127710,-72320 -320830,1840 -641820,2040 -962850,1940l-195710 338980 965560 0c44880,0 81600,36720 81600,81630l0 86780c0,44880 -36720,81600 -81600,81600l-2536790 0c-44870,0 -81590,-36720 -81590,-81600l0 -86780c0,-44910 36720,-81630 81590,-81630l893390 0c0,-69040 55960,-125000 125000,-125000 69040,0 125000,55960 125000,125000l312360 0 195740 -339030c-132920,-50 -265850,-130 -398780,-130 -481890,0 -964490,1060 -1446740,-1760 -41980,-360 -72670,7410 -98070,28220 -13760,11640 -26110,27520 -38100,47980 -486480,847370 -975080,1693680 -1465090,2538590 -10930,18690 -17990,35630 -21520,51850 -204260,353490 -408870,706970 -613830,1060100 -38100,65620 -37750,112540 -710,176740 594790,1025530 1187450,2052110 1778710,3079750 35280,61740 76910,81850 144990,81850 1186750,-1770 2373490,-710 3560230,-4940 44450,0 108660,-35630 131240,-73730 600780,-1031520 1196620,-2065870 1796340,-3098100 39160,-67020 17990,-111470 -13760,-166150 -250470,-432510 -500590,-865370 -750710,-1298230zm252590 1460860c-509760,891110 -1023410,1780470 -1539870,2667700 -21170,36340 -80790,70200 -123120,70560 -1023410,3880 -2046820,3170 -3070580,1410 -33870,0 -82900,-7410 -98430,-29630 -54680,-78320 -98070,-164750 -155920,-266000l155220 0c990950,0 1981900,1060 2972860,-2470 50440,-350 125230,-28220 147810,-67380 463550,-790930 921460,-1585380 1377250,-2380900 19050,-33510 18690,-96300 0,-130170 -62090,-110420 -124530,-220490 -188030,-330550 -124890,-218730 -252240,-436740 -380300,-654050 -19400,-32110 -63500,-67740 -98070,-69500 -141110,-8120 -282580,-3530 -438860,-3530 22230,44800 35990,77260 53270,107600 174980,303740 347840,608540 527410,909460 45150,75850 46910,131940 1410,209200 -282230,481540 -571500,959200 -839260,1448850 -35280,64560 -69850,129120 -104420,194030 -133710,252940 -282230,348900 -578910,340790 -912640,-25050 -1826690,-8470 -2740380,-10590 -47980,0 -114650,-8460 -140410,-39860 -57150,-70200 -93840,-157340 -149570,-256470l189090 0c978950,0 1957560,0 2936520,700 66670,0 120290,-1050 161920,-74080 27870,-49390 56090,-98780 84320,-147810 284690,-499180 574320,-996250 858660,-1495430 17990,-31390 22580,-88900 5640,-118880 -189440,-337260 -383820,-672400 -579610,-1006480 -15880,-26460 -51860,-57150 -79730,-58210 -144990,-5990 -290340,-2820 -452260,-2820 26100,50100 43040,86080 62790,119950 176040,307620 354550,614180 526700,923920 21520,37750 27870,105480 8110,140760 -229650,408160 -464960,813500 -703080,1217080 -17990,30690 -67730,61030 -103010,61030 -33200,110 -66430,110 -99630,210l0 -350550 -601340 0 375420 -706970c76910,-145170 134340,-274110 172270,-386780 37920,-112680 56900,-212340 56900,-299050l0 -30870c0,-126790 -20320,-232160 -60960,-316090 -40610,-83960 -101850,-146860 -183620,-188560 -81810,-41700 -185030,-62580 -309600,-62580 -124640,0 -227820,22500 -309630,67480 -81810,44950 -143020,112400 -183660,202320 -40600,89960 -60920,203700 -60920,341310l0 84490 409540 0 0 -84490c0,-73690 12200,-127840 36580,-162560 24380,-34640 63080,-51960 116200,-51960 46540,0 80970,13790 103190,41420 22190,27650 33300,70160 33300,127600l0 30860c0,74760 -17040,161470 -51180,260040 -34120,98600 -86960,209650 -158440,333160l-476180 828850 0 325050c-398280,320 -796530,140 -1194780,-560 -236370,-710 -472730,-1060 -708740,-1770 -38450,0 -93130,-32100 -112530,-65260 -236360,-400050 -468490,-802220 -697090,-1206500 -19400,-33870 -21170,-97370 -1760,-130530 117820,-205670 235650,-410990 353830,-616300 395470,-688270 793050,-1375480 1192390,-2061990 6350,-10930 16930,-21870 28930,-31400 55390,95610 110770,191560 166160,287520 -12000,10230 -22930,23990 -33160,41630 -393700,686500 -790580,1371240 -1184630,2057750 -60330,105130 -120650,210250 -180980,315380 -20460,36340 -19750,104780 710,141820 182740,327380 371830,651230 561620,974020 18350,30690 56450,68440 86780,70200 129120,6700 258940,3880 400410,3180l51500 0c-22930,-46220 -35270,-74440 -50440,-101250 -179570,-310450 -358430,-621240 -539750,-930280 -34220,-58200 -41630,-104770 -4940,-167570 373590,-640640 742590,-1283750 1117600,-1923690 7050,-12350 18690,-24340 32100,-34930 55390,95960 110770,191560 165810,287520 -9530,8820 -18700,20460 -26820,35270 -315030,552450 -635350,1101380 -950380,1653470 -17290,30700 -16930,87850 710,118540 187320,333720 379590,664980 572550,996240 14470,25400 41990,61030 64560,61740 151700,5640 303740,2820 472730,2820 -30340,-55390 -48340,-91370 -68440,-125940 -176750,-307620 -355960,-613480 -528460,-923220 -20110,-36690 -22230,-103720 -2120,-139350 226480,-401110 457200,-799750 692500,-1195560 22930,-38460 85730,-75140 130180,-75500 1019880,-4230 2039400,-4230 3058930,-350 44450,350 107950,37390 130880,76550 113600,191910 226490,384530 337960,577500 118540,205670 236010,411690 352430,618420 20460,36690 21520,105480 350,141820z"/>
  <path class="fil0" d="M5741470 1141010c306530,533290 613070,1066570 919370,1599990l-3380650 10c-306530,-533290 -613070,-1066570 -919370,-1599990l3380650 -10z"/>
 </g>
</svg>
