<?xml version="1.0" encoding="UTF-8"?>
<!DOCTYPE svg PUBLIC "-//W3C//DTD SVG 1.1//EN" "http://www.w3.org/Graphics/SVG/1.1/DTD/svg11.dtd">
<!-- Creator: CorelDRAW -->
<svg xmlns="http://www.w3.org/2000/svg" xml:space="preserve" width="79.375mm" height="79.375mm" version="1.1" style="shape-rendering:geometricPrecision; text-rendering:geometricPrecision; image-rendering:optimizeQuality; fill-rule:evenodd; clip-rule:evenodd"
viewBox="0 0 7937500 7937500"
 xmlns:xlink="http://www.w3.org/1999/xlink"
 xmlns:xodm="http://www.corel.com/coreldraw/odm/2003">
 <defs>
  <style type="text/css">
   <![CDATA[
    .fil0 {fill:none}
    .fil1 {fill:none;fill-rule:nonzero}
   ]]>
  </style>
 </defs>
 <g id="Слой_x0020_1">
  <metadata id="CorelCorpID_0Corel-Layer"/>
  <path class="fil0" d="M616090 3405910c0,0 0,-820780 0,-820780 0,-132390 70750,-254430 185350,-320620 0,0 484440,-279660 484440,-279660 118730,-345860 267260,-675170 557670,-874580 137350,-93900 292900,-146020 458380,-174160 0,0 0,-614760 0,-614760 0,-273040 223400,-496450 496450,-496450l514480 0 145370 399380 -705550 0c-57140,0 -104240,52340 -104240,115870 0,0 0,17660 0,17660 0,0 0,0 0,0 0,64110 47100,116470 104240,116470 0,0 2340990,0 2340990,0 57670,0 104770,-52360 104770,-116470 0,0 0,-17660 0,-17660 0,-63530 -47100,-115870 -104770,-115870 0,0 -870500,0 -870500,0 0,-55230 -44770,-100000 -100000,-100000 -55230,0 -100000,44770 -100000,100000l-458520 0 -145370 -399380 1624670 0c273040,0 496440,223410 496440,496450 0,0 0,479890 0,479890 16960,7040 34340,14060 50880,21930 390540,187820 598630,602760 799690,1004050 2490,4550 4550,9100 7040,13650 0,0 733480,423640 733480,423640 114600,66190 185350,188230 185350,320620 0,0 0,505130 0,505130 204360,246980 371910,513400 396730,834850 30620,403350 -173330,755420 -396730,1093410 0,0 0,1007770 0,1007770 0,131980 -70750,254430 -185350,320630 0,0 -574210,331370 -574210,331370 -106330,254020 -245330,482790 -467890,635860 -275540,188650 -623870,210990 -979240,199820 0,0 -958550,553530 -958550,553530 -114600,65780 -255660,65780 -370260,0 0,0 -661930,-382260 -661930,-382260 -92660,12000 -184920,19440 -275100,19440 -176250,0 -345440,-27710 -502650,-103420 -309030,-148110 -503480,-438940 -671020,-752520 0,0 -869190,-501820 -869190,-501820 -114600,-66200 -185350,-188650 -185350,-320630 0,0 0,-691700 0,-691700 -204360,-246980 -371910,-513820 -396320,-835270 -31020,-402950 173350,-755410 396320,-1093410z"/>
  <path class="fil1" d="M2562660 2134050l2160 -3680 10 0 2210 -3630 10 0 2260 -3580 10 0 2310 -3550 20 0 2380 -3490 10 0 2410 -3450 20 0 2470 -3400 10 0 2530 -3350 20 0 2580 -3310 10 0 2620 -3260 20 0 2670 -3210 10 0 2730 -3160 20 0 2780 -3120 10 0 2810 -3060 10 0 2880 -3000 10 0 2910 -2970 10 0 2960 -2900 20 0 3000 -2870 10 0 3050 -2800 10 0 3090 -2750 10 0 3130 -2700 10 0 3180 -2650 10 0 3210 -2590 10 0 3250 -2550 10 0 3300 -2480 10 0 3330 -2430 10 0 3370 -2370 10 0 3410 -2320 20 0 3430 -2270 10 0 3490 -2210 10 0 3500 -2150 20 0 3550 -2090 10 0 3580 -2040 10 0 3610 -1970 10 0 3650 -1920 10 0 3670 -1860 10 0 3710 -1800 10 0 3740 -1730 10 0 3770 -1690 10 0 3800 -1620 3820 -1550 10 0 3850 -1500 10 0 3880 -1430 20 0 3890 -1370 10 0 3930 -1320 10 0 3950 -1240 3980 -1180 10 0 4000 -1120 4020 -1050 10 0 4040 -990 10 0 4060 -930 10 0 4080 -850 4100 -800 20 0 4110 -710 4140 -660 10 0 4150 -600 4180 -510 4190 -460 4210 -390 4220 -320 4220 -240 10 0 4230 -180 4260 -100 4270 -40 561490 0 490800 -283370c41010,-23680 86950,-35050 132710,-34110 45760,-940 91710,10430 132720,34110l490790 283370 561490 0 4270 40 4260 100 4230 180 10 0 4230 240 4220 320 4210 390 4180 460 4180 510 4150 600 10 0 4140 660 4120 710 10 0 4100 800 4080 850 20 0 4050 930 20 0 4030 990 10 0 4020 1050 4000 1120 10 0 3980 1180 3950 1240 10 0 3930 1320 10 0 3900 1370 10 0 3880 1430 10 0 3850 1500 10 0 3820 1550 3800 1620 10 0 3770 1690 10 0 3740 1730 10 0 3710 1800 10 0 3670 1860 10 0 3650 1920 10 0 3610 1970 20 0 3570 2040 10 0 3560 2090 10 0 3510 2150 10 0 3480 2210 10 0 3440 2270 10 0 3410 2320 10 0 3370 2370 10 0 3330 2430 10 0 3300 2480 10 0 3250 2550 10 0 3210 2590 20 0 3170 2650 10 0 3140 2700 10 0 3080 2750 10 0 3050 2800 10 0 3010 2870 10 0 2970 2900 10 0 2910 2970 10 0 2870 3000 10 0 2820 3060 10 0 2780 3120 10 0 2730 3160 10 0 2680 3210 10 0 2630 3260 10 0 2580 3310 10 0 2530 3350 10 0 2480 3400 10 0 2420 3450 10 0 2380 3490 10 0 2310 3550 10 0 2260 3580 20 0 2200 3630 10 0 2160 3680 10 0 280750 486260 498560 287850c78920,45560 127530,129760 127530,220890l0 575690 278160 481800c45560,78920 45560,176140 0,255050l-278160 481810 0 575650c0,91120 -48610,175320 -127530,220890l-498540 287830 -280770 486310 -10 0 -2160 3680 -10 0 -2200 3620 -20 0 -2260 3590 -10 0 -2310 3540 -10 0 -2380 3500 -10 0 -2420 3450 -10 0 -2480 3400 -10 0 -2530 3360 -10 0 -2580 3310 -10 0 -2630 3250 -10 0 -2680 3210 -10 0 -2730 3170 -10 0 -2780 3100 -10 0 -2820 3070 -10 0 -2870 3010 -10 0 -2910 2950 -10 0 -2970 2920 -10 0 -3010 2850 -10 0 -3050 2820 -10 0 -3080 2740 -10 0 -3140 2710 -10 0 -3170 2650 -20 0 -3210 2590 -10 0 -3250 2540 -10 0 -3300 2480 -10 0 -3330 2440 -10 0 -3370 2370 -10 0 -3410 2320 -10 0 -3440 2270 -10 0 -3480 2200 -10 0 -3510 2160 -10 0 -3560 2090 -10 0 -3570 2040 -20 0 -3610 1970 -10 0 -3650 1920 -10 0 -3670 1850 -10 0 -3710 1810 -10 0 -3740 1730 -10 0 -3770 1690 -10 0 -3800 1620 -3820 1550 -10 0 -3850 1500 -10 0 -3880 1430 -10 0 -3900 1370 -10 0 -3930 1320 -10 0 -3950 1240 -3980 1180 -10 0 -4000 1120 -4020 1050 -10 0 -4030 990 -20 0 -4050 920 -20 0 -4080 860 -4100 800 -10 0 -4120 710 -4140 660 -10 0 -4150 600 -4180 510 -4180 460 -4210 390 -4220 320 -4230 240 -10 0 -4230 180 -4260 100 -4270 40 -561530 0 -490750 283330c-41010,23680 -86960,35060 -132720,34120 -45760,940 -91700,-10440 -132710,-34120l-490750 -283330 -561540 0 -4270 -40 -4260 -100 -4230 -180 -10 0 -4220 -240 -4220 -320 -4210 -390 -4190 -460 -4180 -510 -4150 -600 -10 0 -4140 -660 -4110 -710 -20 0 -4100 -800 -4080 -860 -10 0 -4060 -920 -10 0 -4040 -990 -10 0 -4020 -1050 -4000 -1120 -10 0 -3980 -1180 -3950 -1240 -10 0 -3930 -1320 -10 0 -3890 -1370 -20 0 -3880 -1430 -10 0 -3850 -1500 -10 0 -3820 -1550 -3800 -1620 -10 0 -3770 -1690 -10 0 -3740 -1730 -10 0 -3710 -1810 -10 0 -3670 -1850 -10 0 -3650 -1920 -10 0 -3610 -1970 -10 0 -3580 -2040 -10 0 -3550 -2090 -20 0 -3500 -2160 -10 0 -3490 -2200 -10 0 -3430 -2270 -20 0 -3410 -2320 -10 0 -3370 -2370 -10 0 -3330 -2440 -10 0 -3300 -2480 -10 0 -3250 -2540 -10 0 -3210 -2590 -10 0 -3180 -2650 -10 0 -3130 -2710 -10 0 -3090 -2740 -10 0 -3050 -2820 -10 0 -3000 -2850 -20 0 -2960 -2920 -10 0 -2910 -2950 -10 0 -2880 -3010 -10 0 -2810 -3070 -10 0 -2780 -3100 -20 0 -2730 -3170 -10 0 -2670 -3210 -20 0 -2620 -3250 -10 0 -2580 -3310 -20 0 -2530 -3360 -10 0 -2470 -3400 -20 0 -2410 -3450 -10 0 -2380 -3500 -20 0 -2310 -3540 -10 0 -2260 -3590 -10 0 -2210 -3620 -10 0 -2160 -3680 -10 0 -280770 -486310 -498540 -287830c-78920,-45570 -127530,-129770 -127530,-220890l0 -575650 -278160 -481810c-45560,-78910 -45560,-176130 0,-255050l278160 -481800 0 -575690c0,-91130 48610,-175330 127530,-220890l498570 -287850 280740 -486260 10 0z"/>
 </g>
</svg>
