<?xml version="1.0" encoding="UTF-8"?>
<!DOCTYPE svg PUBLIC "-//W3C//DTD SVG 1.1//EN" "http://www.w3.org/Graphics/SVG/1.1/DTD/svg11.dtd">
<!-- Creator: CorelDRAW -->
<svg xmlns="http://www.w3.org/2000/svg" xml:space="preserve" width="79.375mm" height="79.375mm" version="1.1" style="shape-rendering:geometricPrecision; text-rendering:geometricPrecision; image-rendering:optimizeQuality; fill-rule:evenodd; clip-rule:evenodd"
viewBox="0 0 7937500 7937500"
 xmlns:xlink="http://www.w3.org/1999/xlink"
 xmlns:xodm="http://www.corel.com/coreldraw/odm/2003">
 <defs>
  <style type="text/css">
   <![CDATA[
    .fil1 {fill:none}
    .fil0 {fill:none;fill-rule:nonzero}
   ]]>
  </style>
 </defs>
 <g id="Слой_x0020_1">
  <metadata id="CorelCorpID_0Corel-Layer"/>
  <path class="fil0" d="M1722360 1806180c4530,-131190 387310,-216340 501940,-240800l405230 -702130c58090,-100060 150720,-163340 270230,-163340l2439110 0c139700,0 219820,76310 282570,184860l392900 680840c54190,11740 109380,24940 162390,39580 1210,-6630 2300,-13430 3140,-20450 5950,-49540 4140,-104410 56510,-132930 24780,-13490 51770,-12380 78420,-7280 5840,1000 11990,2130 18280,3470 5110,-6570 11290,-12420 18570,-17330 49840,-33620 113720,-1700 158390,25620 28190,17240 54250,36530 80410,56600 26100,20030 48650,29080 64060,62810 8340,18260 10350,38190 6310,57830 -3300,16070 -10320,33030 -20890,46660 640,16360 -3580,33150 -12650,49120 -10550,18590 -24930,34590 -43360,42130 -2580,8840 -5930,17650 -9810,26540 -15980,36620 -34650,71930 -54260,106720 -3110,5510 -6170,10850 -9230,16020l-448580 2746250c31930,31410 -7640,55120 -9600,58470l-61990 380040c-760,-150 -1570,-290 -2330,-440 3280,36030 -3680,78480 -9500,111490l-192260 1091840c-10940,61740 -43390,117830 -91720,158400l-849140 712610c-48330,40220 -109010,62450 -171800,62450l-1108780 0c-62800,0 -123830,-22230 -171810,-62450l-849480 -712610c-47980,-40570 -80440,-96660 -91370,-158400l-192620 -1091840c-5660,-32120 -12330,-72870 -9600,-108090 -510,100 -1050,200 -1560,300l-393230 -2408500c-16920,-32420 -37490,-62880 -58770,-92550 -48600,-67810 -94470,-137070 -133210,-211050 -37870,-72310 -71630,-146600 -106920,-220160 -40180,-83740 -81820,-166770 -121080,-250950 -20280,-43450 -39670,-87320 -58120,-131590 -8620,-20670 -15180,-44120 -25370,-63800 -6150,-10170 -11590,-20780 -13650,-32770 -3170,-2580 -6260,-5210 -8890,-7900 -280,-290 -520,-550 -800,-850 -45090,-48160 -45300,-104430 -50940,-165250 -2600,-27970 -5850,-55120 -5850,-83320 -450,-19300 -3760,-31470 2880,-52140 12420,-38660 45650,-55490 81130,-66230 25690,-44300 61340,-64670 112410,-69250 14930,-1370 28970,-3380 42630,-2710 11980,-8550 26510,-13330 41910,-14200 13310,-760 26310,-1380 39600,470 12480,1730 19330,5370 30190,8290 45780,12330 77560,28530 87560,80680 7700,40190 16270,81120 11640,122270 -5620,50060 -30340,78400 -42800,121690 -6760,23480 -6310,39500 -21140,62430 -4930,7640 -13110,15860 -19130,22970 1260,1750 2440,3580 3540,5490 8470,14750 19850,27950 28540,43190 12090,21230 21420,43450 32230,65260 6320,12740 12720,25450 19520,37920zm1497190 -736200c0,45830 29360,77960 71960,77960l1655940 0c95180,0 96500,-149930 0,-149930l-1655940 0c-39490,0 -71960,32840 -71960,71970z"/>
  <path class="fil1" d="M5949570 5037370c31200,13330 39910,48800 39650,88140 -80,30800 -5730,63960 -10480,90880l-192520 1091840c-10920,61910 -43290,117990 -91450,158400l-849300 712650c-48160,40400 -109010,62550 -171870,62550l-180 0 -1108500 0 -180 0c-62860,0 -123710,-22150 -171870,-62550l-849300 -712650c-48160,-40410 -80530,-96490 -91450,-158400l-192520 -1091840c-4750,-26920 -10400,-60080 -10480,-90880 -260,-39340 8450,-74810 39650,-88140 840,-380 1710,-750 2590,-1100 50,-20 100,-40 160,-60 401830,-160310 1117520,-228200 1827650,-223540 710130,-4660 1425820,63230 1827650,223540 60,20 110,40 160,60 880,350 1750,720 2590,1100z"/>
  <path class="fil0" d="M5950010 5037580c57840,25350 37060,131180 28670,178780l-192520 1091840c-10920,61910 -43300,117990 -91450,158400l-849300 712650c-48390,40590 -109270,62550 -172060,62550l-1114390 -60c-59420,-430 -120490,-24170 -166170,-62490l-849300 -712650c-48150,-40410 -80530,-96490 -91450,-158400 -26510,-150350 -203550,-1113260 -202970,-1186590 310,-39570 9940,-72540 42210,-85370 401810,-160350 1117600,-228210 1827820,-223550 710220,-4660 1426010,63200 1827820,223550 1060,420 2080,870 3090,1340zm-49140 75550c-353240,-125620 -1043780,-207800 -1781770,-212590 -737990,4790 -1428530,86970 -1781770,212590l-410 12310 201870 1167510c7300,41460 29100,79220 61380,106300l849340 712670c30600,25690 71490,41590 111390,41930l1112450 40c42090,0 83000,-14820 115340,-41970l849340 -712670c32280,-27080 54080,-64840 61380,-106300 24040,-136420 206760,-1126330 201460,-1179820z"/>
 </g>
</svg>
