<svg xmlns="http://www.w3.org/2000/svg" viewBox="1 1 98.31 98.05">
	<path d="M50.1558 1C23.0078 1 1 23.008 1 50.1558 3.5892 115.36 96.7323 115.3415 99.3115 50.1555 99.3115 23.008 77.3038 1 50.1558 1ZM53.2295 15.9999 63.3753 9.2439A43.1447 43.1447 90 0184.9654 24.9941L81.6927 36.671 65.6665 41.8076 53.2295 32.6667ZM36.9368 9.2439 47.0851 16.0012V32.6654L34.6461 41.8076 18.619 36.67 15.3466 24.9936A43.1387 43.1387 90 0136.9368 9.2439ZM15.4721 75.4862A42.6906 42.6906 90 017.1475 50.0965L16.7307 42.5165 32.745 47.6501 37.5228 62.5252 27.6101 75.9826ZM63.5103 91.0179C55.1751 93.8594 45.1354 93.8589 36.8002 91.0176L32.5709 79.6098 42.4977 66.1332H57.8148L67.7396 79.6103ZM84.8389 75.4865 72.701 75.983 62.7898 62.5255 67.5681 47.6498 83.5814 42.5174 93.1641 50.097A42.6869 42.6869 90 0184.839 75.4865Z" fill="#000000"/>
</svg>