<?xml version="1.0" encoding="UTF-8"?>
<!DOCTYPE svg PUBLIC "-//W3C//DTD SVG 1.1//EN" "http://www.w3.org/Graphics/SVG/1.1/DTD/svg11.dtd">
<!-- Creator: CorelDRAW -->
<svg xmlns="http://www.w3.org/2000/svg" xml:space="preserve" width="79.375mm" height="79.375mm" version="1.1" style="shape-rendering:geometricPrecision; text-rendering:geometricPrecision; image-rendering:optimizeQuality; fill-rule:evenodd; clip-rule:evenodd"
viewBox="0 0 7937500 7937500"
 xmlns:xlink="http://www.w3.org/1999/xlink"
 xmlns:xodm="http://www.corel.com/coreldraw/odm/2003">
 <defs>
  <style type="text/css">
   <![CDATA[
    .fil0 {fill:none}
    .fil1 {fill:none;fill-rule:nonzero}
   ]]>
  </style>
 </defs>
 <g id="Слой_x0020_1">
  <metadata id="CorelCorpID_0Corel-Layer"/>
  <path class="fil0" d="M2312830 1486750c0,-238360 0,-666870 0,-666870 0,-232830 222820,-423340 495160,-423340l470700 0 145590 400000 -734100 0c-60510,0 -110380,52340 -110380,115870 0,0 0,17660 0,17660 0,0 0,0 0,0 0,64110 49870,116470 110380,116470 0,0 2478680,0 2478680,0 61070,0 110940,-52360 110940,-116470 0,0 0,-17660 0,-17660 0,-63530 -49870,-115870 -110940,-115870 0,0 -939340,0 -939340,0 0,-55230 -44770,-100000 -100000,-100000 -55230,0 -100000,44770 -100000,100000l-498820 0 -145590 -400000 1662620 0c272330,0 495150,190510 495150,423340 0,0 0,412220 0,630610 216520,183630 355670,461120 491060,731350 2120,3880 3880,7760 6000,11640 0,0 625470,361250 625470,361250 97720,56440 158050,160510 158050,273400 0,0 0,430740 0,430740 174270,210610 317140,437800 338310,711910 26110,343950 -147810,644170 -338310,932390 0,0 0,859360 0,859360 0,112540 -60330,216960 -158050,273410 0,0 -489650,282570 -489650,282570 -90670,216610 -209200,411690 -398990,542220 -234960,160870 -531990,179920 -835030,170390 0,0 -817390,472020 -817390,472020 -97720,56090 -218010,56090 -315730,0 0,0 -564450,-325970 -564450,-325970 -79020,10230 -157690,16580 -234590,16580 -150290,0 -294570,-23630 -428630,-88190 -263520,-126300 -429330,-374300 -572200,-641700 0,0 -741190,-427920 -741190,-427920 -97720,-56450 -158050,-160870 -158050,-273410 0,0 0,-589840 0,-589840 -174270,-210610 -317140,-438150 -337960,-712260 -26450,-343610 147820,-644170 337960,-932390 0,0 0,-699910 0,-699910 0,-112890 60330,-216960 158050,-273400 0,0 413100,-238480 413100,-238480 101250,-294920 227900,-575740 475550,-745780 49600,-33910 101990,-61440 156620,-83720z"/>
  <path class="fil1" d="M2767790 2443490l1840 -3140 10 0 1880 -3090 10 0 1930 -3060 10 0 1970 -3020 10 0 2030 -2980 10 0 2060 -2940 10 0 2110 -2900 10 0 2160 -2860 10 0 2200 -2820 10 0 2240 -2780 10 0 2280 -2740 10 0 2330 -2690 10 0 2370 -2660 10 0 2400 -2610 10 0 2450 -2560 10 0 2480 -2530 10 0 2530 -2480 10 0 2560 -2440 10 0 2600 -2390 10 0 2630 -2350 10 0 2670 -2300 10 0 2710 -2260 10 0 2740 -2210 10 0 2770 -2170 10 0 2810 -2120 10 0 2840 -2070 10 0 2870 -2020 10 0 2910 -1980 10 0 2930 -1930 10 0 2970 -1890 10 0 2990 -1830 10 0 3030 -1780 10 0 3050 -1740 10 0 3080 -1680 10 0 3110 -1640 10 0 3130 -1590 10 0 3160 -1530 10 0 3190 -1480 10 0 3210 -1440 10 0 3240 -1380 3260 -1320 10 0 3280 -1280 10 0 3310 -1220 10 0 3320 -1170 10 0 3350 -1120 10 0 3370 -1060 3390 -1010 10 0 3410 -950 3430 -900 10 0 3440 -840 10 0 3460 -790 10 0 3480 -730 3500 -680 10 0 3510 -610 3530 -560 10 0 3540 -510 3560 -440 3570 -390 3590 -330 3600 -270 3600 -210 10 0 3610 -150 3630 -90 3640 -30 478800 0 418520 -241640c34970,-20190 74150,-29890 113170,-29090 39020,-800 78200,8900 113170,29090l418520 241640 478800 0 3640 30 3630 90 3610 150 10 0 3600 210 3600 270 3590 330 3570 390 3560 440 3540 510 10 0 3530 560 3510 610 10 0 3500 680 3480 730 10 0 3460 790 10 0 3440 840 10 0 3430 900 3410 950 10 0 3390 1010 3370 1060 10 0 3350 1120 10 0 3320 1170 10 0 3310 1220 10 0 3280 1280 10 0 3260 1320 3240 1380 10 0 3210 1440 10 0 3190 1480 10 0 3160 1530 10 0 3130 1590 10 0 3110 1640 10 0 3080 1680 10 0 3050 1740 10 0 3030 1780 10 0 2990 1830 10 0 2970 1890 10 0 2930 1930 10 0 2910 1980 10 0 2870 2020 10 0 2840 2070 10 0 2810 2120 10 0 2770 2170 10 0 2740 2210 10 0 2710 2260 10 0 2670 2300 10 0 2630 2350 10 0 2600 2390 10 0 2560 2440 10 0 2530 2480 10 0 2480 2530 10 0 2450 2560 10 0 2400 2610 10 0 2370 2660 10 0 2330 2690 10 0 2280 2740 10 0 2240 2780 10 0 2200 2820 10 0 2160 2860 10 0 2110 2900 10 0 2060 2940 10 0 2030 2980 10 0 1970 3020 10 0 1930 3060 10 0 1880 3090 10 0 1840 3140 10 0 239400 414650 425140 245460c67300,38850 108750,110650 108750,188360l0 490910 237200 410850c38850,67290 38850,150200 0,217490l-237200 410850 0 490880c0,77700 -41450,149500 -108750,188360l-425120 245440 -239420 414690 -10 0 -1840 3140 -10 0 -1880 3090 -10 0 -1930 3060 -10 0 -1970 3020 -10 0 -2030 2980 -10 0 -2060 2940 -10 0 -2110 2900 -10 0 -2160 2870 -10 0 -2200 2820 -10 0 -2240 2770 -10 0 -2280 2740 -10 0 -2330 2700 -10 0 -2370 2650 -10 0 -2400 2610 -10 0 -2450 2570 -10 0 -2480 2520 -10 0 -2530 2490 -10 0 -2560 2430 -10 0 -2600 2400 -10 0 -2630 2340 -10 0 -2670 2310 -10 0 -2710 2260 -10 0 -2740 2210 -10 0 -2770 2160 -10 0 -2810 2120 -10 0 -2840 2080 -10 0 -2870 2020 -10 0 -2910 1980 -10 0 -2930 1930 -10 0 -2970 1880 -10 0 -2990 1840 -10 0 -3030 1780 -10 0 -3050 1740 -10 0 -3080 1680 -10 0 -3110 1640 -10 0 -3130 1580 -10 0 -3160 1540 -10 0 -3190 1480 -10 0 -3210 1440 -10 0 -3240 1380 -3260 1320 -10 0 -3280 1280 -10 0 -3310 1220 -10 0 -3320 1170 -10 0 -3350 1120 -10 0 -3370 1060 -3390 1010 -10 0 -3410 950 -3430 900 -10 0 -3440 840 -10 0 -3460 790 -10 0 -3480 730 -3500 680 -10 0 -3510 610 -3530 560 -10 0 -3540 510 -3560 440 -3570 390 -3590 330 -3600 270 -3600 210 -10 0 -3610 150 -3630 90 -3640 30 -478840 0 -418480 241610c-34970,20190 -74150,29890 -113170,29090 -39020,800 -78200,-8900 -113170,-29090l-418480 -241610 -478840 0 -3640 -30 -3630 -90 -3610 -150 -10 0 -3600 -210 -3600 -270 -3590 -330 -3570 -390 -3560 -440 -3540 -510 -10 0 -3530 -560 -3510 -610 -10 0 -3500 -680 -3480 -730 -10 0 -3460 -790 -10 0 -3440 -840 -10 0 -3430 -900 -3410 -950 -10 0 -3390 -1010 -3370 -1060 -10 0 -3350 -1120 -10 0 -3320 -1170 -10 0 -3310 -1220 -10 0 -3280 -1280 -10 0 -3260 -1320 -3240 -1380 -10 0 -3210 -1440 -10 0 -3190 -1480 -10 0 -3160 -1540 -10 0 -3130 -1580 -10 0 -3110 -1640 -10 0 -3080 -1680 -10 0 -3050 -1740 -10 0 -3030 -1780 -10 0 -2990 -1840 -10 0 -2970 -1880 -10 0 -2930 -1930 -10 0 -2910 -1980 -10 0 -2870 -2020 -10 0 -2840 -2080 -10 0 -2810 -2120 -10 0 -2770 -2160 -10 0 -2740 -2210 -10 0 -2710 -2260 -10 0 -2670 -2310 -10 0 -2630 -2340 -10 0 -2600 -2400 -10 0 -2560 -2430 -10 0 -2530 -2490 -10 0 -2480 -2520 -10 0 -2450 -2570 -10 0 -2400 -2610 -10 0 -2370 -2650 -10 0 -2330 -2700 -10 0 -2280 -2740 -10 0 -2240 -2770 -10 0 -2200 -2820 -10 0 -2160 -2870 -10 0 -2110 -2900 -10 0 -2060 -2940 -10 0 -2030 -2980 -10 0 -1970 -3020 -10 0 -1930 -3060 -10 0 -1880 -3090 -10 0 -1840 -3140 -10 0 -239420 -414690 -425120 -245440c-67300,-38860 -108750,-110660 -108750,-188360l0 -490880 -237200 -410850c-38850,-67290 -38850,-150200 0,-217490l237200 -410850 0 -490910c0,-77710 41450,-149510 108750,-188360l425140 -245460 239400 -414650 10 0z"/>
 </g>
</svg>
