<?xml version="1.0" encoding="UTF-8"?>
<!DOCTYPE svg PUBLIC "-//W3C//DTD SVG 1.1//EN" "http://www.w3.org/Graphics/SVG/1.1/DTD/svg11.dtd">
<!-- Creator: CorelDRAW -->
<svg xmlns="http://www.w3.org/2000/svg" xml:space="preserve" width="79.375mm" height="79.375mm" version="1.1" style="shape-rendering:geometricPrecision; text-rendering:geometricPrecision; image-rendering:optimizeQuality; fill-rule:evenodd; clip-rule:evenodd"
viewBox="0 0 7937500 7937500"
 xmlns:xlink="http://www.w3.org/1999/xlink"
 xmlns:xodm="http://www.corel.com/coreldraw/odm/2003">
 <defs>
  <style type="text/css">
   <![CDATA[
    .fil0 {fill:none;fill-rule:nonzero}
   ]]>
  </style>
 </defs>
 <g id="Слой_x0020_1">
  <metadata id="CorelCorpID_0Corel-Layer"/>
  <path class="fil0" d="M3966630 6970830l323280 -237740c91740,-6180 183100,-17600 273570,-34120 207170,228790 551230,201410 805430,70860 56460,-29000 79930,-84770 56020,-136680 137110,-8720 329940,-88780 439140,-182630 39710,-34120 49230,-91000 20590,-133710 129260,-33180 296950,-143200 384680,-251750 32830,-40600 29980,-99610 -1030,-134540 117860,-55320 259380,-190630 325060,-309820 23880,-43340 17500,-98780 -23210,-131540 105070,-74850 219150,-230980 263070,-358360 15990,-46340 110,-100000 -44230,-125090 89500,-91370 175350,-264700 196860,-396730 7850,-48160 -16440,-98090 -63760,-115630 72310,-105660 127180,-290970 126210,-424850 -370,-50920 -37430,-94070 -82010,-102800 47250,-104290 81140,-329300 49130,-452390 -11560,-44450 -51530,-76200 -96520,-77380 31390,-123950 19420,-326530 -29280,-452360 -18110,-46810 -63880,-74020 -112450,-66470 8410,-130570 -42830,-333960 -115190,-449810 -26520,-42460 -77610,-60570 -123620,-43830 -17420,-138590 -114140,-336410 -206590,-436030 -34660,-37350 -94010,-44330 -131630,-19850 -46440,-139480 -189730,-326150 -303680,-409530 -20070,-14710 -43640,-21290 -66600,-20450 -89030,3160 -102730,84390 -111270,154170l-224320 -317560c-475880,-270340 -1001520,-404160 -1527650,-403300 -526130,-860 -1051770,132960 -1527650,403300l-224320 317560c-8540,-69780 -22240,-151010 -111270,-154170 -22960,-840 -46530,5740 -66600,20450 -113950,83380 -257240,270050 -303680,409530 -37620,-24480 -96970,-17500 -131630,19850 -92450,99620 -189170,297440 -206590,436030 -46010,-16740 -97100,1370 -123620,43830 -72360,115850 -123600,319240 -115190,449810 -48570,-7550 -94340,19660 -112450,66470 -48700,125830 -60670,328410 -29280,452360 -44990,1180 -84960,32930 -96520,77380 -32010,123090 1880,348100 49130,452390 -44580,8730 -81640,51880 -82010,102800 -970,133880 53900,319190 126210,424850 -47320,17540 -71610,67470 -63760,115630 21510,132030 107360,305360 196860,396730 -44340,25090 -60220,78750 -44230,125090 43920,127380 158000,283510 263070,358360 -40710,32760 -47090,88200 -23210,131540 65680,119190 207200,254500 325060,309820 -31010,34930 -33860,93940 -1030,134540 87730,108550 255420,218570 384680,251750 -28640,42710 -19120,99590 20590,133710 109200,93850 302030,173910 439140,182630 -23910,51910 -440,107680 56020,136680 254200,130550 598260,157930 805430,-70860 90470,16520 181830,27940 273570,34120l323280 237740zm0 -5486430l799650 0c40420,0 73160,32780 73160,73170l0 7670c0,40390 -32740,73180 -73160,73180l-799650 0 -799650 0c-40420,0 -73160,-32790 -73160,-73180l0 -7670c0,-40390 32740,-73170 73160,-73170l799650 0z"/>
  <path class="fil0" d="M5512550 2550550l0 1481330c0,847520 -689530,1537060 -1537060,1537060 -5910,0 -11830,0 -17740,0 -847530,0 -1537060,-689540 -1537060,-1537060l0 -1481330c387890,-409950 937010,-665760 1545930,-665760 608920,0 1158030,255810 1545930,665760z"/>
 </g>
</svg>
