<?xml version="1.0" encoding="UTF-8"?>
<!DOCTYPE svg PUBLIC "-//W3C//DTD SVG 1.1//EN" "http://www.w3.org/Graphics/SVG/1.1/DTD/svg11.dtd">
<!-- Creator: CorelDRAW -->
<svg xmlns="http://www.w3.org/2000/svg" xml:space="preserve" width="79.375mm" height="79.375mm" version="1.1" style="shape-rendering:geometricPrecision; text-rendering:geometricPrecision; image-rendering:optimizeQuality; fill-rule:evenodd; clip-rule:evenodd"
viewBox="0 0 7937500 7937500"
 xmlns:xlink="http://www.w3.org/1999/xlink"
 xmlns:xodm="http://www.corel.com/coreldraw/odm/2003">
 <defs>
  <style type="text/css">
   <![CDATA[
    .fil1 {fill:none}
    .fil0 {fill:none;fill-rule:nonzero}
   ]]>
  </style>
 </defs>
 <g id="Слой_x0020_1">
  <metadata id="CorelCorpID_0Corel-Layer"/>
  <path class="fil0" d="M1569510 1808340l0 76910 6000 35980 130170 798340 39160 239890 37040 225420 55390 340790 249060 1525760 4940 30690 4580 26460c360,0 1060,0 1420,-350 -2830,35270 3880,76200 9520,108300l192620 1091850c10930,61730 43390,117820 91370,158390l849490 712610c47970,40220 109000,62450 171800,62450l1108780 0c62790,0 123470,-22230 171800,-62450l849140 -712610c48330,-40570 80780,-96660 91720,-158390l192260 -1091850c6000,-33160 13060,-75500 9530,-111480 700,0 1760,350 2470,350l33510 -206720 224370 -1373010 55390 -340790 37040 -225420 23990 -147460 150630 -922170 1060 -4580 0 -76910c0,-85370 -162630,-164390 -438860,-228950 -13750,-3170 -27510,-6350 -41980,-9520 -7050,-1420 -14460,-2830 -21160,-4240l-168280 -291390 -15170 -26110 -8110 -13760 -14820 -25750 -165450 -287510 -11640 -19760 -9530 -16580 -11290 -19400 -7400 -13050c-54680,-94200 -155230,-152400 -263880,-152400l-2439110 0c-21870,0 -44090,2110 -64910,7400 -19750,3880 -39160,10230 -57500,18700 -26110,10940 -50450,26110 -72320,44450 -8110,6700 -15880,14110 -22930,21520 -9880,9530 -18700,20110 -26460,31040 -5640,7060 -10580,14120 -14820,21880 -1760,2470 -3170,4940 -4940,7410l-6350 10930 -12700 21870 -4580 8120 -42690 74080 -331960 575030 -13410 22930c-171450,36690 -304800,78320 -390870,123470 -8120,3880 -15170,7760 -21880,11640 -58210,34930 -89250,70560 -89250,107950zm1497190 -738360c0,-2820 0,-5290 360,-8110 0,-360 0,-1060 350,-1420 1410,-10230 4940,-19750 10230,-28220 4590,-7760 10580,-14460 17990,-19400 12000,-9530 26810,-14820 43040,-14820l1655940 0c39860,0 71970,32460 71970,71970l0 6000c0,6350 -710,12340 -2470,17990 -1770,7760 -5300,15170 -9880,21870 -12700,19400 -34570,32100 -59620,32100l-1655940 0c-26460,0 -50090,-14810 -62440,-36330 -4240,-7410 -7410,-15530 -8470,-24340 -700,-3530 -1060,-7410 -1060,-11290l0 -6000z"/>
  <path class="fil1" d="M5797030 5037370c31200,13330 39910,48800 39650,88140 -80,30800 -5730,63960 -10480,90880l-192520 1091840c-10920,61910 -43290,117990 -91450,158400l-849300 712650c-48160,40400 -109010,62550 -171870,62550l-180 0 -1108500 0 -180 0c-62860,0 -123710,-22150 -171870,-62550l-849300 -712650c-48160,-40410 -80530,-96490 -91450,-158400l-192520 -1091840c-4750,-26920 -10400,-60080 -10480,-90880 -260,-39340 8450,-74810 39650,-88140 840,-380 1710,-750 2590,-1100 50,-20 100,-40 160,-60 401830,-160310 1117520,-228200 1827650,-223540 710130,-4660 1425820,63230 1827650,223540 60,20 110,40 160,60 880,350 1750,720 2590,1100z"/>
 </g>
</svg>
