<?xml version="1.0" encoding="UTF-8"?>
<!DOCTYPE svg PUBLIC "-//W3C//DTD SVG 1.1//EN" "http://www.w3.org/Graphics/SVG/1.1/DTD/svg11.dtd">
<!-- Creator: CorelDRAW -->
<svg xmlns="http://www.w3.org/2000/svg" xml:space="preserve" width="79.375mm" height="79.375mm" version="1.1" style="shape-rendering:geometricPrecision; text-rendering:geometricPrecision; image-rendering:optimizeQuality; fill-rule:evenodd; clip-rule:evenodd"
viewBox="0 0 7937500 7937500"
 xmlns:xlink="http://www.w3.org/1999/xlink"
 xmlns:xodm="http://www.corel.com/coreldraw/odm/2003">
 <defs>
  <style type="text/css">
   <![CDATA[
    .fil1 {fill:none}
    .fil0 {fill:none;fill-rule:nonzero}
   ]]>
  </style>
 </defs>
 <g id="Слой_x0020_1">
  <metadata id="CorelCorpID_0Corel-Layer"/>
  <path class="fil0" d="M1109510 3503010l0 -699910c0,-112890 60330,-216960 158050,-273400l413100 -238480c101250,-294920 227900,-575740 475550,-745780 7740,-5290 15550,-10430 23420,-15410l0 -808470c0,-165020 135000,-300010 300000,-300010l2899990 0c165000,0 300000,134990 300000,300010l0 842750c142960,170780 249760,383800 354320,592500 2120,3880 3880,7760 6000,11640l625470 361250c97720,56440 158050,160510 158050,273400l0 430740c174270,210610 317140,437800 338310,711910 26110,343950 -147810,644170 -338310,932390l0 859360c0,112540 -60330,216960 -158050,273410l-489650 282570c-90670,216610 -209200,411690 -398990,542220 -234960,160870 -531990,179920 -835030,170390l-817390 472020c-97720,56090 -218010,56090 -315730,0l-564450 -325970c-79020,10230 -157690,16580 -234590,16580 -150290,0 -294570,-23630 -428630,-88190 -263520,-126300 -429330,-374300 -572200,-641700l-741190 -427920c-97720,-56450 -158050,-160870 -158050,-273410l0 -589840c-174270,-210610 -317140,-438150 -337960,-712260 -26450,-343610 147820,-644170 337960,-932390zm4070110 -2681460l-2500000 0c-55000,0 -100000,45000 -100000,100000l0 50000c0,55000 45000,100000 100000,100000l2500000 0c55000,0 100000,-45000 100000,-100000l0 -50000c0,-55000 -45000,-100000 -100000,-100000z"/>
  <path class="fil1" d="M1994480 3757850l-237220 410870c-38850,67290 -38850,150200 0,217490l237200 410820 0 490910c0,77710 41450,149510 108750,188360l425140 245460 239410 414670c38850,67300 110650,108750 188350,108750l478800 -30 418520 241640c34970,20190 74150,29890 113170,29090 39020,800 78200,-8900 113170,-29090l418480 -241610 478840 0c77710,0 149510,-41450 188360,-108750l239420 -414690 425120 -245440c67300,-38860 108750,-110660 108750,-188360l0 -490880 237200 -410850c38850,-67290 38850,-150200 0,-217520l-237200 -410820 0 -490910c0,-77710 -41450,-149510 -108750,-188360l-425140 -245460 -239400 -414650c-38850,-67290 -110650,-108740 -188360,-108770l-478800 30 -418520 -241640c-34970,-20190 -74150,-29890 -113170,-29090 -39020,-800 -78200,8900 -113170,29090l-418480 241610 -478840 30c-77700,0 -149500,41450 -188360,108720l-239420 414690 -425120 245440c-67300,38860 -108750,110660 -108750,188360l20 490890z"/>
 </g>
</svg>
