<?xml version="1.0" encoding="UTF-8"?>
<!DOCTYPE svg PUBLIC "-//W3C//DTD SVG 1.1//EN" "http://www.w3.org/Graphics/SVG/1.1/DTD/svg11.dtd">
<!-- Creator: CorelDRAW -->
<svg xmlns="http://www.w3.org/2000/svg" xml:space="preserve" width="79.375mm" height="79.375mm" version="1.1" style="shape-rendering:geometricPrecision; text-rendering:geometricPrecision; image-rendering:optimizeQuality; fill-rule:evenodd; clip-rule:evenodd"
viewBox="0 0 7937500 7937500"
 xmlns:xlink="http://www.w3.org/1999/xlink"
 xmlns:xodm="http://www.corel.com/coreldraw/odm/2003">
 <defs>
  <style type="text/css">
   <![CDATA[
    .fil1 {fill:none}
    .fil0 {fill:none;fill-rule:nonzero}
   ]]>
  </style>
 </defs>
 <g id="Слой_x0020_1">
  <metadata id="CorelCorpID_0Corel-Layer"/>
  <path class="fil0" d="M801140 1190190c15520,-49520 66800,-64460 94050,-72370 290,-590 290,-1170 590,-1760 27830,-49520 66510,-74130 125990,-79400l6150 -880c8790,-1170 20800,-2640 32820,-2640 5860,0 11130,290 16410,1170 12600,-10250 28710,-16990 48050,-18160 6740,-300 14060,-880 21390,-880 7620,0 14940,580 21680,1460 12600,1760 21980,5280 28130,7620 1760,880 3810,1470 6150,2050l6740 1760c26370,7030 75890,19920 88200,84090l2050 10260c7610,39260 16990,87610 11720,132730 -4110,36630 -19050,69150 -31940,97570 -7620,16700 -14650,32230 -19050,46590 -1170,4100 -2050,8790 -2930,13470 -3800,17290 -8200,38680 -21090,58020 -7030,11430 -14650,19630 -20810,26370 -4100,4690 -6730,7620 -8490,9960 4100,3810 7620,8210 10550,13190 4100,7320 9080,14350 14060,21090 7030,10260 14060,20220 19920,30770 10550,18460 19640,37210 28130,55380 3520,7620 7030,15230 10840,22850 18170,37210 38390,76480 65930,111930 21980,28710 43370,57430 64460,86430 39560,54210 77060,105190 119840,153250 50400,56840 105190,112220 158520,165540l9370 9670 11040 11050 -43560 -266860 -5860 -36180c0,0 0,-50420 0,-76810 0,-37370 31060,-73260 89070,-107960 7030,-3850 14070,-7710 21980,-11860 85990,-45080 219540,-86720 391000,-123320l13290 -23030 331970 -575030 42680 -74080 4590 -8120 12700 -21870 6350 -10940c1770,-2470 3180,-4930 4940,-7400 4230,-7770 9170,-14820 14820,-21880 7760,-10930 16580,-21520 26460,-31040 7050,-7410 14810,-14820 22930,-21520 21870,-18350 46210,-33510 72320,-44450 18340,-8470 37740,-14820 57500,-18700 20810,-5290 43040,-7410 64910,-7410l2439110 0c108650,0 209190,58210 263870,152400l7410 13060 11290 19400 9520 16580 11650 19750 165450 287520 14820 25750 8110 13760 15170 26110 168180 291370c6970,1510 14400,2950 21230,4460 14360,2970 28130,6230 41900,9500 276300,64650 438920,143530 438920,228950 0,20760 0,76810 0,76810l-880 4740 -4390 27580 -17000 104030c9140,-9200 18070,-18620 26960,-28070 47760,-52150 92300,-111050 139760,-185470 4110,-6150 9090,-12310 14360,-18460 590,-290 880,-880 1460,-1460 0,-590 0,-1470 300,-2350 580,-5270 1460,-10550 2340,-15240 1170,-4680 2350,-9370 3520,-14060 1760,-7320 4980,-19340 5270,-21100 -16410,-34870 -34870,-74710 -39550,-128330 -3230,-36040 4100,-69740 10540,-99330 3230,-14360 6160,-27840 7620,-40440 590,-3810 880,-8490 1170,-13770 2640,-37500 7040,-100500 57140,-127750 13480,-7320 29300,-11130 47170,-11130 13190,0 25200,1760 34870,3810 8500,1460 17000,3220 25490,5270 15240,-23150 41020,-36920 72380,-36920 47460,0 110460,32230 203930,104310l2340 2050c3810,2930 7910,5570 12020,8210 24900,16990 76760,51860 62990,117490 -1170,6450 -7330,31650 -23730,51280 1170,17580 -2930,35750 -12600,53030 -5570,9670 -20220,35460 -48060,44250 -2920,12300 -7320,23440 -12010,33690 -16410,37210 -36040,75890 -60360,118670l-1750 3510c-13780,24320 -28720,50400 -52160,71500 -290,4690 -590,9080 -1760,13480 -9670,38380 -41310,53620 -56840,60650 -290,290 -880,290 -1170,580 -2930,7040 -6160,19640 -8210,27550 -3220,11420 -6150,23440 -10840,34570 -21980,54790 -48930,106650 -74720,154710 -60060,111340 -124820,216230 -192500,312340 -20800,29010 -48050,67390 -77650,105780 -35450,46290 -70610,85850 -106650,125690 -10840,11730 -21390,24320 -32230,37220 -15650,18120 -32180,37230 -49860,55720l-3470 20980 -12300 76220 -4690 29650 -24910 152440 -5270 30840 -24030 147100 -4980 31440 -23440 143540 -5270 32320 -23150 141470 -5570 34100 -23140 142060 -5860 35880 -24030 146210 -6150 37670 -25500 155990 -6730 41520 -28720 175870 -7620 46560 -15230 93710 -9380 57830 -11620 70410c8600,8460 13900,17920 12210,27850 -1920,11750 -10810,21850 -21810,30620l-7490 46100 -10840 66430 -9970 60800 -33690 206710c-760,-150 -1570,-290 -2330,-440 3280,36030 -3680,78480 -9500,111490l-192260 1091840c-10940,61740 -43390,117830 -91720,158400l-849140 712610c-48330,40220 -109010,62450 -171800,62450l-1108780 0c-62800,0 -123830,-22230 -171810,-62450l-849480 -712610c-47980,-40570 -80440,-96660 -91370,-158400l-192620 -1091840c-5660,-32120 -12330,-72870 -9600,-108090 -510,100 -1050,200 -1560,300l-4390 -26390 -4980 -30850 -35750 -218860 -5270 -31740 -16410 -100830 -11720 -71180 -5570 -35000 -5270 -32910 -19050 -117450 -9960 -60490 -3220 -19870 -5860 -34410 -31060 -190400 -5860 -35880 -30180 -184760 -6150 -37960 -29600 -182390 -6440 -39450 -29890 -182680 -6740 -41820 -30760 -187140 -7330 -45670 -26080 -159250 -3590 -22020c-14340,-9970 -28680,-19750 -43290,-29220l-14350 -9380c-24030,-15230 -48640,-31350 -72960,-45710 -18760,-10840 -39260,-20210 -60950,-29880 -19630,-8790 -39850,-18170 -59770,-29010 -54500,-29590 -83220,-75890 -101970,-112510 -21970,-42200 -49510,-82630 -73830,-116620 -50400,-70610 -109000,-155580 -159690,-252280 -33110,-63290 -63880,-128620 -93470,-191620 -11720,-24610 -23150,-48930 -35160,-73550 -17870,-37210 -35750,-74420 -53910,-111630 -31060,-63290 -61830,-126870 -91710,-190750 -26670,-57420 -49810,-109290 -70030,-157930 -4690,-11130 -8790,-22560 -12890,-33980 -5860,-16120 -11430,-31650 -18760,-45420 -4690,-7330 -13480,-20510 -14940,-38380 -4980,-4110 -9670,-8500 -14650,-13480 -47170,-50100 -52160,-115740 -55970,-168480 -580,-7620 -1170,-14940 -1750,-22270l-1760 -19040c-2640,-25200 -5270,-50980 -5270,-79990 0,-2350 0,-4980 -300,-7910 -1170,-13480 -2630,-31940 3230,-50110zm2366350 -120210l0 5990c0,3880 350,7770 1060,11290 1050,8820 4230,16940 8460,24350 12350,21510 35990,36330 62440,36330l1655940 0c25050,0 46920,-12700 59620,-32100 4590,-6700 8120,-14110 9880,-21870 1760,-5650 2470,-11650 2470,-18000l0 -5990c0,-39510 -32100,-71970 -71970,-71970l-1655940 0c-16220,0 -31040,5290 -43030,14820 -7410,4940 -13410,11640 -18000,19400 -5640,8820 -9170,19050 -10580,29630 -350,2830 -350,5290 -350,8120z"/>
  <path class="fil1" d="M5897610 5037370c31200,13330 39910,48800 39650,88140 -80,30800 -5730,63960 -10480,90880l-192520 1091840c-10920,61910 -43290,117990 -91450,158400l-849300 712650c-48160,40400 -109010,62550 -171870,62550l-180 0 -1108500 0 -180 0c-62860,0 -123710,-22150 -171870,-62550l-849300 -712650c-48160,-40410 -80530,-96490 -91450,-158400l-192520 -1091840c-4750,-26920 -10400,-60080 -10480,-90880 -260,-39340 8450,-74810 39650,-88140 840,-380 1710,-750 2590,-1100 50,-20 100,-40 160,-60 401830,-160310 1117520,-228200 1827650,-223540 710130,-4660 1425820,63230 1827650,223540 60,20 110,40 160,60 880,350 1750,720 2590,1100z"/>
 </g>
</svg>
