<?xml version="1.0" encoding="UTF-8"?>
<!DOCTYPE svg PUBLIC "-//W3C//DTD SVG 1.1//EN" "http://www.w3.org/Graphics/SVG/1.1/DTD/svg11.dtd">
<!-- Creator: CorelDRAW -->
<svg xmlns="http://www.w3.org/2000/svg" xml:space="preserve" width="79.375mm" height="79.375mm" version="1.1" style="shape-rendering:geometricPrecision; text-rendering:geometricPrecision; image-rendering:optimizeQuality; fill-rule:evenodd; clip-rule:evenodd"
viewBox="0 0 7937500 7937500"
 xmlns:xlink="http://www.w3.org/1999/xlink"
 xmlns:xodm="http://www.corel.com/coreldraw/odm/2003">
 <defs>
  <style type="text/css">
   <![CDATA[
    .fil1 {fill:none}
    .fil0 {fill:none;fill-rule:nonzero}
   ]]>
  </style>
 </defs>
 <g id="Слой_x0020_1">
  <metadata id="CorelCorpID_0Corel-Layer"/>
  <path class="fil0" d="M-353990 12229230c1492800,-2037850 1985170,-4451190 2427480,-7155320 25970,-159590 51940,-326210 77350,-497260 -77180,-16260 -152790,-38800 -226460,-68790l0 -1090c-22020,-9120 -44580,-18250 -66060,-28450 -31690,-15240 -62450,-31650 -92340,-49110 -105540,-61660 -200240,-136730 -286550,-221860 -164070,-157250 -297990,-350730 -417980,-558210 -379110,-123750 -730640,-295010 -974460,-614590 -292700,-384740 -338010,-862390 -339520,-1346140 -328270,-368630 -623480,-762090 -661000,-1253720 -31250,-409670 124180,-778780 332120,-1130270 -5720,-27420 -11290,-54840 -16220,-82200l1970 -3850c-27160,-150810 -44510,-300810 -44880,-448490 -2210,-202680 27010,-400990 106210,-590900 64670,-154870 158940,-290140 272950,-411740 4210,-4470 8540,-8860 12800,-13300 17150,-17910 34740,-35500 52720,-52840 6450,-6220 12900,-12430 19450,-18580 180460,-169340 398680,-312040 624430,-446190 158640,-472730 351200,-930110 746910,-1201440 138450,-94840 291090,-157140 452890,-197260 5970,-1460 11980,-2800 17990,-4200 24120,-5710 48440,-10910 72950,-15700 8790,-1700 17590,-3420 26440,-5020 182130,-32950 373900,-41940 568810,-40150 283960,-256030 586960,-471510 939150,-538580l590 920c23440,-4310 47340,-8910 70920,-12020 470260,-59740 913090,147790 1341330,391300 245710,-48040 491620,-86210 728650,-85360 10230,-50 20450,-20 30650,80 65250,640 129830,4290 193510,11560 127370,14520 251230,43510 370050,91880l0 1090c22020,9120 44580,18250 66060,28450 31690,15240 62450,31650 92340,49110 105540,61660 200240,136730 286550,221860 164070,157250 297990,350730 417980,558210 379110,123750 730640,295010 974460,614590 292700,384740 338010,862390 339520,1346140 328270,368630 623480,762090 661000,1253720 31250,409670 -124180,778780 -332120,1130270 5720,27420 11290,54840 16220,82200l-1970 3850c27160,150810 44510,300810 44880,448490 2210,202680 -27010,400990 -106210,590900 -64670,154870 -158940,290140 -272950,411740 -4210,4470 -8540,8860 -12800,13300 -17150,17910 -34740,35500 -52720,52840 -6450,6220 -12900,12430 -19450,18580 -180460,169340 -398680,312040 -624430,446190 -158640,472730 -351200,930110 -746910,1201440 -138450,94840 -291090,157140 -452890,197260 -5970,1460 -11980,2800 -17990,4200 -24120,5710 -48440,10910 -72950,15700 -8790,1700 -17590,3420 -26440,5020 -130430,23600 -265800,34910 -403730,38770l0 221880c212430,1537530 553760,3507590 1283600,5420450 282810,741150 681120,1464080 1184200,2148520 17680,24220 36400,48200 55130,72120 -2735070,0 -5906160,0 -8641230,0z"/>
  <path class="fil0" d="M717380 170260c-10,-54550 14080,-109090 42300,-157960l344310 -596340 0 -712540c0,-112780 60170,-217000 157840,-273400l617130 -356260 347500 -601850c56390,-97690 160610,-157850 273400,-157850l695000 0 607520 -350740c51090,-29490 107270,-43570 164240,-42220 56970,-1350 113150,12730 164240,42220l607520 350740 695000 0c112790,0 217010,60160 273400,157850l347500 601850 617130 356260c97670,56400 157840,160620 157840,273400l0 712540 344310 596340c28220,48870 42310,103410 42300,157960 10,54550 -14080,109090 -42300,157960l-344310 596340 0 712540c0,112780 -60170,217000 -157840,273400l-617130 356260 -347500 601850c-56390,97690 -160610,157850 -273400,157850l-695000 0 -607520 350740c-51090,29490 -107270,43570 -164240,42220 -56970,1350 -113150,-12730 -164240,-42220l-607520 -350740 -695000 0c-112790,0 -217010,-60160 -273400,-157850l-347500 -601850 -617130 -356260c-97670,-56400 -157840,-160620 -157840,-273400l0 -712540 -344310 -596340c-28220,-48870 -42310,-103410 -42300,-157960z"/>
  <polygon class="fil1" points="9038250,12229230 -1104980,12229230 -1104980,12729230 9038250,12729230 "/>
 </g>
</svg>
