<?xml version="1.0" encoding="UTF-8"?>
<!DOCTYPE svg PUBLIC "-//W3C//DTD SVG 1.1//EN" "http://www.w3.org/Graphics/SVG/1.1/DTD/svg11.dtd">
<!-- Creator: CorelDRAW -->
<svg xmlns="http://www.w3.org/2000/svg" xml:space="preserve" width="79.375mm" height="79.375mm" version="1.1" style="shape-rendering:geometricPrecision; text-rendering:geometricPrecision; image-rendering:optimizeQuality; fill-rule:evenodd; clip-rule:evenodd"
viewBox="0 0 7937500 7937500"
 xmlns:xlink="http://www.w3.org/1999/xlink"
 xmlns:xodm="http://www.corel.com/coreldraw/odm/2003">
 <defs>
  <style type="text/css">
   <![CDATA[
    .fil0 {fill:none;fill-rule:nonzero}
   ]]>
  </style>
 </defs>
 <g id="Слой_x0020_1">
  <metadata id="CorelCorpID_0Corel-Layer"/>
  <path class="fil0" d="M1422400 1693680c7050,-3530 14110,-7410 21870,-11640 98070,-50450 257170,-97010 464260,-136530l350 0 67030 -116060c-1060,-1060 -2120,-2470 -3180,-3530 -8110,-8810 -15170,-18340 -20810,-28920 -9880,-18000 -15170,-38460 -15170,-58570l0 -10930c0,-3180 700,-6000 700,-9170 360,-2470 360,-5290 710,-7760 350,-1770 350,-3180 710,-4940 700,-3880 1760,-7760 2820,-11640 700,-2470 1410,-4590 2110,-7060 1060,-3180 2470,-6350 3880,-9530 1060,-2470 2120,-4930 3180,-7050 2820,-5290 5640,-10230 9170,-15170 -350,-2120 -710,-4590 -710,-7410 -3880,-48330 18000,-93130 59980,-121710 13760,-9520 29280,-16580 45150,-21520 15880,-20810 37750,-36690 64210,-46210 18340,-6700 37390,-9880 56800,-9880 3170,0 6350,0 9870,360l45510 -78320 9880 -16940c4940,-8110 10940,-18340 17640,-29980 23990,-40570 55030,-93490 58560,-97720 7760,-10580 16580,-21170 26110,-30690 7050,-7410 15170,-14820 23280,-21520 7410,-6350 14820,-11640 22580,-17290 15520,-10580 32100,-20110 49390,-27510 18690,-8120 38090,-14470 57500,-18700 21170,-4940 43040,-7060 65260,-7060l2438760 0c109000,0 209550,58210 264230,152050l355600 616660c2110,-710 4230,-1060 6350,-1770 79020,-22930 160510,-51860 222250,-108300 4930,-31400 14110,-63500 27160,-95600 19400,-48340 40220,-91020 63150,-130880 10230,-17290 11990,-28930 11990,-37750 350,-20460 1410,-74790 44800,-120650 23290,-24700 56100,-38450 89960,-38450l10940 0c26100,0 51500,8110 72320,23280 33510,23640 56790,55030 70200,91720 3880,-2470 7410,-4580 11640,-6350 15170,-16230 33520,-33510 57860,-48330 24690,-15170 53620,-22930 83960,-22930 40570,0 78670,14110 107240,39510 4240,3530 7760,7060 11290,11290 5290,1760 10230,4590 15530,7410 39510,21870 63850,63500 63850,108300l0 13760c0,29280 -10230,57500 -27520,77960l-710 -700c-3520,26460 -14810,51500 -32800,73020 -2120,2470 -5650,6710 -9530,10940 -5640,37040 -27160,70550 -60320,93130 -10590,7410 -21170,15170 -31400,22580 -19760,14110 -41630,30340 -65970,45160 -7060,4580 -14460,8460 -22230,12340 -350,350 -1050,710 -1760,1060 -31040,33160 -67380,63850 -107240,90310 -26460,17640 -61390,38810 -103370,51510l-53970 39860c-12000,8470 -23990,17640 -35990,26460 41980,25750 68440,52920 76910,80790 2120,6700 3170,13400 3170,20100l0 26460c0,22930 -4580,77610 -4580,77610l-710 3530 -350 2470 -525290 3261080c-2110,14460 -4580,28930 -6700,41630l-166160 941910 -26460 149930c-10580,61740 -43390,118180 -91360,158400l-849490 712610c-47980,40570 -109010,62440 -171450,62440l-1108780 0c-62800,0 -123830,-21870 -171810,-62440l-849490 -712610c-34220,-28930 -61020,-65970 -76550,-107600 -6700,-16220 -11640,-33160 -14820,-50800l-192610 -1091840c-1410,-9180 -3180,-19050 -4940,-29280l-526700 -3272020 -6000 -35630c0,0 0,-49740 0,-75850 0,-37040 31050,-72310 89260,-106890zm1410400 -620180l0 6000c0,39510 32460,71960 71970,71960l1655940 0c39860,0 71970,-32450 71970,-71960l0 -6000c0,-39510 -32110,-71970 -71970,-71970l-1655940 0c-39510,0 -71970,32460 -71970,71970z"/>
  <path class="fil0" d="M5561500 5034420c57840,25350 37060,131180 28670,178780l-192520 1091840c-10920,61910 -43300,117990 -91450,158400l-849300 712650c-48390,40590 -109270,62550 -172060,62550l-1114390 -60c-59420,-430 -120490,-24170 -166170,-62490l-849300 -712650c-48150,-40410 -80530,-96490 -91450,-158400 -26510,-150350 -203550,-1113260 -202970,-1186590 310,-39570 9940,-72540 42210,-85370 401810,-160350 1117600,-228210 1827820,-223550 710220,-4660 1426010,63200 1827820,223550 1060,420 2080,870 3090,1340z"/>
 </g>
</svg>
