<?xml version="1.0" encoding="UTF-8"?>
<!DOCTYPE svg PUBLIC "-//W3C//DTD SVG 1.1//EN" "http://www.w3.org/Graphics/SVG/1.1/DTD/svg11.dtd">
<!-- Creator: CorelDRAW -->
<svg xmlns="http://www.w3.org/2000/svg" xml:space="preserve" width="79.375mm" height="79.375mm" version="1.1" style="shape-rendering:geometricPrecision; text-rendering:geometricPrecision; image-rendering:optimizeQuality; fill-rule:evenodd; clip-rule:evenodd"
viewBox="0 0 7937500 7937500"
 xmlns:xlink="http://www.w3.org/1999/xlink"
 xmlns:xodm="http://www.corel.com/coreldraw/odm/2003">
 <defs>
  <style type="text/css">
   <![CDATA[
    .fil0 {fill:#2B2A29;fill-rule:nonzero}
    .fil1 {fill:#D6A22D;fill-rule:nonzero}
   ]]>
  </style>
 </defs>
 <g id="Слой_x0020_1">
  <metadata id="CorelCorpID_0Corel-Layer"/>
  <path class="fil0" d="M6474290 6241350c-179210,291740 -357010,583840 -535160,876300 -15870,26100 -44450,41980 -75490,41980 -31050,0 -59620,-15880 -75500,-41980 -178500,-292100 -361240,-588080 -543280,-879480 -17640,-27870 -17990,-62440 -2110,-90660 15870,-27520 44800,-44810 76900,-44810l1770 0c55380,1060 1017050,4240 1077030,3880 32100,0 61380,17290 77260,45160 15870,27870 15160,62090 -1420,89610zm-4654780 -2990660l0 1929270 -383150 0 0 -1716090 383150 -213180zm3437930 -2249730l-2536790 0c-44870,0 -81590,-36730 -81590,-81600l0 -86790c0,-44900 36720,-81630 81590,-81630l2536790 0c44880,0 81600,36730 81600,81630l0 86790c0,44870 -36720,81600 -81600,81600zm259060 6322000c-15870,28580 -45510,45860 -77610,45860 -350,0 -1035050,2830 -1107020,3530 -32100,0 -61380,-17280 -77250,-44800 -15880,-27870 -15170,-62090 1410,-89610 198960,-328080 397230,-649810 547860,-893230 15880,-26110 44100,-41980 74790,-41980l350 0c30340,0 58920,15870 74790,41630 196150,313260 393000,625120 559860,888640 17290,27170 18340,61740 2820,89960zm-1568090 -172860l-360 0c-30690,0 -59260,-16230 -75490,-42330l-81140 -133000c-153110,-250470 -309740,-507650 -465670,-760940 -16580,-27160 -17640,-61380 -1760,-89610 15870,-27870 45150,-45500 76900,-45500 360,0 970500,4230 1086560,14460 30340,3170 57150,21170 70910,48330 13760,27520 12350,59970 -3530,86080 -130880,215540 -328080,540810 -530580,879830 -16230,26450 -44800,42680 -75840,42680zm-339020 174270c-15530,27870 -45160,45160 -76910,45160 0,0 -935920,-1760 -1097490,-21870 -29630,-3880 -55740,-22580 -68440,-49390 -13410,-27170 -11640,-58920 3530,-84670 74080,-121000 148520,-242360 222950,-363360l14820 -23990c98780,-159810 200380,-324910 299860,-490360 16230,-26460 45160,-42690 75850,-42690 31040,0 59620,16230 75490,42690 178510,294570 361250,593730 548570,898880 16940,27510 17640,61730 1770,89600zm-1475670 -222950c-15880,27160 -44810,43390 -75850,43390l-350 0c-31050,0 -59620,-16230 -75850,-42690 -204960,-344310 -375710,-627940 -536930,-893230 -16580,-27520 -16930,-61740 -1410,-89250 15880,-27870 45160,-45160 77260,-45160 0,0 1005420,3880 1068920,4240 31390,350 60670,17630 76200,45150 15520,27870 14810,61380 -1420,88900 -69490,116770 -139700,233890 -209550,350660 -107590,179210 -214480,358420 -321020,537990zm2232370 -5465590l-31390 -51860c-16230,-27510 -16580,-61730 -360,-89600 15880,-27170 45160,-44100 76560,-44100l1410 0c389820,6350 770460,16230 1058680,23280 8120,360 15880,1420 23290,3880 22220,6710 41630,22230 52910,43750 14820,28570 13060,62790 -4580,89600 -16230,24350 -435330,657230 -546100,827970 -16230,25050 -44450,40570 -74090,40570l-1760 0c-29990,-700 -58210,-16930 -74080,-42680 -161930,-267760 -323850,-538690 -480490,-800810zm-341130 2340330c-16230,26110 -44450,41980 -75140,41980l-1410 0c-30700,-710 -58920,-17290 -75150,-43740 -128410,-219430 -523520,-882650 -523520,-882650 -16580,-27520 -16580,-61740 -350,-89610 5290,-9170 12350,-17290 20110,-23990 15520,-13050 35270,-20460 56090,-20460 700,0 1410,0 1760,710 210960,3520 1023060,21870 1068570,22930 31750,700 60670,18340 75840,46560 15170,27870 14110,62090 -3170,88900 -65620,104780 -431800,679450 -543630,859370zm-711550 1668990c134050,-212720 258930,-412040 377110,-602540 57510,-92430 113600,-183090 168280,-272350 16230,-26460 44800,-42330 75140,-42330l710 0c31040,350 59620,16580 75490,43390 53980,91020 109010,182740 164040,275170 118890,198960 239890,400750 361250,600430 16930,27160 17280,61380 1410,89250 -15520,27870 -45160,45150 -76910,45150l-350 0c-68440,-350 -1071030,-700 -1071030,-700l-360 0c-32100,0 -61730,-17290 -77250,-45160 -15880,-28570 -14820,-62790 2470,-90310zm-926050 -1086910c15880,-27160 45160,-43740 76560,-43740l1050 0c57150,350 1012830,3530 1071040,2820l1060 0c31750,0 61030,16930 76900,44800 15880,28230 15170,62450 -1410,89610 -82900,135470 -443790,733070 -539750,894290 -15870,27160 -44800,43390 -75850,43390l-350 0c-31040,0 -59970,-16230 -75850,-42680 -100190,-167220 -454730,-765880 -533040,-898880 -16230,-27870 -16230,-61740 -360,-89610zm-12340 -477660c110420,-174620 481190,-753180 551390,-863250 16230,-25400 44450,-40560 74790,-40560l1410 0c30690,700 58910,16930 74430,43740 173920,295270 346780,585610 515060,862540 16580,27520 16930,61740 1060,89960 -15520,27520 -44800,44800 -76910,44800l-350 0c-58910,-700 -1002950,-1410 -1066800,-1410 -32100,0 -61740,-17990 -77260,-46210 -15170,-28220 -14110,-62440 3180,-89610zm2188630 -1530700c16230,27160 16580,60680 1060,88190 -15520,27170 -44800,44450 -76200,45160 -65270,700 -1008240,-3180 -1072800,-3530 -32450,0 -62090,-17640 -77610,-46570 -15170,-28220 -13760,-63140 3880,-89950 91020,-140060 472020,-719670 559510,-853730 16220,-25040 44450,-40210 74080,-40210l1760 0c30690,700 58560,16930 74090,43390 62790,105130 406040,675920 512230,857250zm-2125130 -1063980c350,-1060 700,-1410 1050,-2120 15880,-27160 44810,-44090 76560,-44090l1760 0c45160,1060 992010,8820 1048460,8110l700 0c32110,0 61740,17640 77260,45860 15880,28220 14460,63150 -3530,90670 -161570,250120 -322440,500590 -482950,751410l-62440 97020c-16230,25400 -44450,40570 -74440,40570l-1760 0c-30690,-1060 -59270,-17290 -74790,-43750 -168630,-289630 -341840,-582790 -504470,-856190 -360,-710 -710,-1410 -1410,-2470 -14470,-26100 -14820,-58560 0,-85020zm-361600 153460l1760 0c30690,710 58210,16930 74090,43040 94540,157690 513990,846310 513990,846310 16230,26460 17640,58920 3880,86080 -14110,27520 -40920,45510 -71610,47980 -44800,3880 -1077380,-8120 -1077380,-8120 -32810,0 -62440,-17990 -77970,-46560 -15520,-28930 -13760,-63500 4240,-90670 19750,-30690 40210,-60670 60670,-91010 22230,-32810 494600,-747190 494600,-747190 16230,-24690 43740,-39860 73730,-39860zm4363860 910870c16580,27520 17290,61740 1410,89610 -15870,27510 -44800,44800 -77260,44800l-1043870 350c-32800,0 -62440,-17990 -77960,-46920 -15520,-28920 -13760,-63500 4230,-90660 68090,-103010 443800,-673810 545750,-830090 16230,-25400 44100,-40570 73730,-40570l2120 0c30690,710 58560,17290 74430,43750 169340,286810 345730,578550 497420,829730zm1262240 1459440c-324200,-502000 -2135720,-3451570 -2224620,-3596920 -34920,-57500 -72320,-93480 -150990,-95600 -80430,-2120 -2569980,-19050 -2617610,-19400l-4940 0c-109710,0 -176390,37390 -237770,133350 -413100,647700 -1895470,3022240 -2218270,3539420 -150280,241300 -207430,447670 -28920,732010 454370,722490 1527880,2551640 1618540,2705800 96310,163340 216960,233190 404280,233190l15170 0c218730,-4230 3224390,350 3463580,2470l4940 0c141110,0 225420,-49740 301270,-176040 557740,-932740 1104900,-1843970 1661230,-2730500 150990,-241300 202140,-437790 14110,-727780z"/>
  <path class="fil1" d="M4842140 2998080l-714290 1204350c-64000,107910 -64220,240990 -580,349100l710260 1206630c63640,108110 181480,174830 309120,175040l1424560 2270c127640,210 245690,-66150 309690,-174050l714290 -1204360c64010,-107910 64230,-240980 590,-349100l-710270 -1206630c-63640,-108110 -181470,-174830 -309110,-175040l-1424560 -2270c-127640,-210 -245690,66150 -309700,174060z"/>
 </g>
</svg>
