<?xml version="1.0" encoding="UTF-8"?>
<!DOCTYPE svg PUBLIC "-//W3C//DTD SVG 1.1//EN" "http://www.w3.org/Graphics/SVG/1.1/DTD/svg11.dtd">
<!-- Creator: CorelDRAW -->
<svg xmlns="http://www.w3.org/2000/svg" xml:space="preserve" width="79.375mm" height="79.375mm" version="1.1" style="shape-rendering:geometricPrecision; text-rendering:geometricPrecision; image-rendering:optimizeQuality; fill-rule:evenodd; clip-rule:evenodd"
viewBox="0 0 7937500 7937500"
 xmlns:xlink="http://www.w3.org/1999/xlink"
 xmlns:xodm="http://www.corel.com/coreldraw/odm/2003">
 <defs>
  <style type="text/css">
   <![CDATA[
    .fil0 {fill:none;fill-rule:nonzero}
   ]]>
  </style>
 </defs>
 <g id="Слой_x0020_1">
  <metadata id="CorelCorpID_0Corel-Layer"/>
  <path class="fil0" d="M421130 5612840l2674730 -4632790c57080,-98910 162630,-159840 276790,-159840l1188580 0c114190,0 219600,60710 276680,159630 377900,654510 1828730,3167420 2674230,4631900 57120,98850 57120,220700 0,319590l-594890 1030390c-57110,98880 -162590,159810 -276790,159810l-5348320 0c-114160,0 -219670,-60930 -276750,-159810l-594260 -1029260c-57110,-98890 -57110,-220700 0,-319620zm2695790 -4015760c0,41460 33580,75000 75000,75000l1550000 0c41410,0 75000,-33540 75000,-75000 0,-41410 -33590,-75000 -75000,-75000l-1550000 0c-41420,0 -75000,33590 -75000,75000z"/>
  <path class="fil0" d="M5955900 2916390l-3978100 0 -442950 767250c882190,1527950 1102710,1909940 1984830,3437890l2795630 0c459630,-796150 574560,-995180 1034200,-1791330 -464540,-804580 -929080,-1609200 -1393610,-2413810z"/>
 </g>
</svg>
